<svg xmlns="http://www.w3.org/2000/svg" viewBox="0 0 576 576" role="img" aria-label="Midcentury floor lamp">
  <path fill="#D5A84C" d="M309.9 544.9s-19.8 1.2-21.9-44.6c-2.1-46-2.8-92.2-2.9-138.3 0-31.4 1.4-62.8 3.9-94.1 2.4-30.4 4.1-61.3 9.7-91.3.1-.7.3-1.5.4-2.2 0 0 38.4-2.5 59-7 20.6-4.5 7.4-8.3 0-49.9-7.4-41.7-21-81.7-21-81.7-.3-1-6.3-2.3-7.2-2.6-5.7-1.8-11.4-3.3-17.3-4.3-26.8-4.5-57.3-2.2-82.4 8.6l-22.3 122.5s-9.5 12 24.3 13.6c33.8 1.7 37.5 1.2 37.5 1.2s6.2 75.1 5.8 155.1c-.4 80 5 194.3-37.5 215 0 0 36.7 9.9 71.8 0Z"/>
</svg>
