<?xml version="1.0" encoding="UTF-8"?>
<svg id="Layer_1" data-name="Layer 1" xmlns="http://www.w3.org/2000/svg" viewBox="0 0 508.03898774 565.84716378">
  <defs>
    <style>
      .cls-1 {
        fill: #e4c9b4;
      }

      .cls-2 {
        fill: #483e34;
      }

      .cls-3 {
        fill: #ac988d;
      }
    </style>
  </defs>
  <path class="cls-1" d="M508.0006835,392.68525577c-.08996582,27.39996338-20.69995117,47.53997803-34.94995117,55.92999268-59.34002686,34.89996338-121,73.20001221-181.05004883,106.88995361-44.34997559,25.06005859-77.55999756-.54998779-115.94995117-22.59997559-47.63000488-27.05999756-146.58001709-86.80999756-146.58001709-86.80999756C6.42072745,433.04524112.0307128,418.40522647.01069327,392.63520694c-.04998779-70.44000244.04998779-224.81994629.85003662-231.57995605,1.85998535-15.88000488,11.94995117-26.25,23.44000244-35.77001953,13.32995605-11.04998779,143.68994141-86.16998291,193.97998047-115.13000488,23.35998535-13.45001221,47.82000732-13.58996582,71.15997314-.11999512,61.14001465,35.2800293,122.04998779,70.9699707,182.73999023,107,13.54003906,8.03997803,25.90002441,18.16998291,32.2300415,33.5,3.05999756,7.39001465,3.51000977,15.32000732,3.5199585,23.2199707.02001953,36.37005615.18005371,182.33001709.07000732,218.93005371Z"/>
  <path class="cls-3" d="M507.93067618,173.75520206c-.00994873-7.89996338-.45996094-15.82995605-3.5199585-23.2199707-6.33001709-15.33001709-18.69000244-25.46002197-32.2300415-33.5-60.69000244-36.0300293-121.59997559-71.7199707-182.73999023-107-23.33996582-13.4699707-47.79998779-13.33001709-71.15997314.11999512C167.99067373,39.11524845,37.63068838,114.23524356,24.30073233,125.28523136c-11.49005127,9.52001953-21.58001709,19.89001465-23.44000244,35.77001953C.06068106,167.81526065-.03929453,322.1952045.01069327,392.63520694c.02001953,25.77001953,6.41003418,40.41003418,29.46002197,53.46002197,0,0,98.95001221,59.75,146.58001709,86.80999756,38.38995361,22.04998779,71.59997559,47.66003418,115.94995117,22.59997559,60.05004883-33.68994141,121.71002197-71.98999023,181.05004883-106.88995361,14.25-8.39001465,34.85998535-28.5300293,34.94995117-55.92999268.11004639-36.60003662-.04998779-182.55999756-.07000732-218.93005371ZM248.19068594,525.6952045c-.07995605,17.67004395-12.4699707,26.0300293-28.72998047,19.0300293-14.41998291-6.22003174-169.40997314-96.70001221-182.5-106.83001709-13.84002686-10.70001221-22.44000244-24.54998779-22.07000732-43.01000977.29998779-15.20996094-1.91998291-188.91998291-1.90002441-205.34997559-.50994873-16.5300293,10.17004395-30.54998779,28.25-19.69000244,42.5300293,24.96002197,165.88000488,95.58001709,183.46002197,108.40002441,14.92999268,10.88995361,23.35003662,25.91998291,23.45001221,44.82000732.14001465,25,.14001465,183.25994873.03997803,202.62994385ZM252.35072012,266.99525333c-12.7300415-.61999512-24.22003174-5.35003662-35.17004395-11.65002441-24.27996826-13.98999023-160.02996826-91.5-169.83996582-97.89001465-9.47998047-6.19000244-12.22003174-16.32000732-7.41998291-24.60998535,3.52996826-6.09002686,9.77996826-9.01000977,15.55999756-12.34002686,25.27996826-14.58996582,170.92999268-98.5199585,180.04998779-103.10998535,5.70996094-2.88000488,12.25-3.05999756,20.66998291-3,11.75-1.44000244,198.79998779,106.61999512,206.5,112.63000488,10.57000732,8.25,10.16003418,21.67999268-.80999756,29.47003174-12.88000488,9.14996338-158,91.54998779-178.45001221,102.67999268-9.5199585,5.19000244-20.0199585,8.35998535-31.08996582,7.82000732ZM493.09071036,399.2252338c-.23999023,11.66998291-5.66998291,21.46002197-13.04998779,30.28997803-9.71002197,11.64001465-159.17004395,97.15002441-187.85003662,113.61999512-13.2699585,8.11004639-31.39996338,3.7300415-32.17999268-13.77996826-.03997803-34.91003418.27001953-166.97003174-.55999756-198.04998779-.75-28.11004639,11.69000244-47.33001709,35.48999023-60.9800415,38.05999756-21.82995605,153.42999268-89.78997803,173.40002441-101.32000732,12.94000244-7.4699707,25.40997314-.28997803,26.20001221,15.13000488,1.15997314,22.55999756-.92004395,190.27001953-1.45001221,215.09002686Z"/>
  <path class="cls-2" d="M478.37604027,393.59563666c-.93183204,11.40228968-6.79951031,21.96357602-19.37171267,27.84410861-13.3071894,6.22441742-26.5439558-1.00989127-29.0004882-15.45148489-2.4494901-14.40040041,7.09808685-30.68016159,20.8622197-35.57243889,14.58833648-5.18525395,27.80011544,4.897156,27.50998117,23.17981517ZM450.65949911,225.58820771c-13.74241202,5.09374647-22.98742462,20.90532197-20.67585329,35.36163654,1.99458298,12.47369502,12.15598547,19.71797323,24.15988272,17.22412936,13.28126864-2.75924524,24.06065417-16.84395122,24.26759597-31.70882525.2253536-16.18819007-13.18471277-26.27628476-27.75162539-20.87694066ZM312.03233347,500.01564947c17.09318925-1.96475927,30.97449579-20.96984811,28.03374162-38.38138325-2.11481116-12.52137902-11.4503555-20.20516463-22.88187497-18.83344339-15.44087901,1.85280367-28.32858491,17.42252283-28.16970892,34.03204183.13923391,14.55448254,10.17217806,24.65937693,23.01784227,23.18278481ZM318.29815623,345.87412733c14.67225016-5.38553526,24.54839707-22.86876611,21.57913432-38.20040463-2.72957001-14.09403915-15.74009192-21.28904247-29.11074686-16.09859165-12.72785417,4.94093704-21.9198374,18.68996713-21.75111917,32.53455613.21020841,17.24981679,13.8873731,27.41537678,29.2827317,21.76444014ZM123.6872089,332.67910565c-13.14173777-4.97907577-25.89848234,1.99487995-28.7760361,15.73147995-2.81554122,13.44048401,4.24159636,29.01957877,16.54163407,36.24104693,15.65339775,10.04538173,33.89372787-.04027203,34.19865683-17.52702567.04359014-15.99191778-9.12802982-29.58215672-21.9642548-34.4455012ZM275.18095352,221.58911465c11.38218095-9.20392545,11.51959064-24.186758.30818547-33.59811312-12.02752713-10.09643091-32.3680015-9.77884864-44.12061787.68855445-18.64803966,17.41768731-.42874859,40.06709731,20.16256492,40.18457271,10.26404613-.00629989,17.79440718-2.54008548,23.64986748-7.27501404ZM236.41449222,74.45008863c10.42220092,7.00655817,25.95108747,6.50934421,35.90569538-1.14930467,18.91836783-15.74643933,2.555582-37.54448607-18.41185865-37.12523501-22.21587903-.5167265-38.4917074,23.09778649-17.49383672,38.27453968Z"/>
</svg>