<?xml version="1.0" encoding="UTF-8"?>
<svg id="Layer_1" data-name="Layer 1" xmlns="http://www.w3.org/2000/svg" viewBox="0 0 226.61835036 569.68">
  <defs>
    <style>
      .cls-1 {
        fill: #ffa602;
      }

      .cls-2 {
        fill: #ac988d;
      }
    </style>
  </defs>
  <path class="cls-2" d="M18.0147174,569.68L101.7907123,218.92873944c-24.75836054-13.60771676-10.53712912-51.2667615,17.55678189-44.50520385,21.05657749,5.06783348,24.33532902,34.72221735,5.19606377,44.51894021l83.9110766,350.73752419h-14.44305861l-11.93618867-47.92061094-68.81020103-68.78975943-69.15594017,68.95173337-11.80036758,47.758637h-14.2941611ZM113.45626721,235.55379207l-11.3284795,45.43139928,10.87605883,11.14033474,11.1888202-11.14033474-10.73639953-45.43139928ZM94.99844623,310.59825615l10.06775316-10.31840267-5.75840279-6.65276618-4.30935037,16.97116885ZM127.45235209,293.62589009l-6.4978602,6.65396339,10.36970735,10.01841128-3.87184715-16.67237468ZM113.0552682,307.94345347l-20.69447041,20.91724825,20.64304874,20.73926378,20.95581012-20.73926378-20.90438846-20.91724825ZM76.83109354,385.93853249l28.24489533-27.91271836-17.08123669-17.94396081-11.16365864,45.85667917ZM138.46886038,340.08149802l-17.27781268,17.69519812,28.29645692,28.46149584-11.01864424-46.15669396ZM113.0552682,365.41789289l-35.63728405,35.85902165,35.8472021,35.85902165,35.63728405-35.85902165-35.8472021-35.85902165ZM49.1380127,501.18707082l55.94769026-55.90120818-34.06526709-34.62658889-21.88242317,90.52779707ZM177.18252127,501.18699394l-21.8825027-90.52772019-34.06526709,34.62658889,55.94776979,55.9011313Z"/>
  <path class="cls-1" d="M111.07022134,0l32.14257643,78.14794774-26.74178807,5.56447004-.33650068,54.16466574-32.75170667-78.45878171,26.76436263-5.5532441.92305635-53.86505772ZM183.83921343,106.55331562l-21.20613649-17.47327917-41.7282912,73.51228205,42.81010522-32.41192318,21.19609738,17.50727588,41.70736202-73.53659686-42.77913693,32.40224129ZM64.1925186,89.31209415l-21.10483671,17.2522647L0,73.85317843l41.98318494,73.72550762,21.23218344-17.41217727,42.20045626,32.12784735-41.22330605-72.98226198Z"/>
</svg>