<?xml version="1.0" encoding="UTF-8"?>
<svg id="Layer_1" xmlns="http://www.w3.org/2000/svg" version="1.1" viewBox="0 0 576 576">
  <!-- Generator: Adobe Illustrator 29.2.1, SVG Export Plug-In . SVG Version: 2.1.0 Build 116)  -->
  <defs>
    <style>
      .st0 {
        fill: #eca645;
      }
    </style>
  </defs>
  <path class="st0" d="M294,448l3.2-242.2h-22.9l5,241.7c-22.5,8.3-29.4,31.2-29.4,31.2-14.7,48.6,15.6,73.9,24.3,79.8s51.4,11,55.5-44.5c4.1-55.5-35.8-66.1-35.8-66.1Z"/>
  <path class="st0" d="M270,54.8c.1,8.9.3,17.7.4,26.6.2,10.3.3,20.6.5,30.9.2,10.4.3,20.8.5,31.1.1,9.1.3,18.2.4,27.4.1,6.5.2,13,.3,19.5,0,2.6,0,5.1.1,7.7h24.3l2.8-167.4s.5-15.1-13.5-16.5c-8.4-.8-14.2,7-15.6,14.5-.8,4.2-.6,8.5-.5,12.8,0,4.5.1,9,.2,13.4ZM284.6,23.5s4.5-.8,5.4,4.8c.9,5.6-5.4,6-5.4,6,0,0-5.8.3-5.2-5.4.7-5.8,5.2-5.4,5.2-5.4Z"/>
</svg>